<?xml version="1.0" encoding="utf-8"?>
<!-- Generator: Adobe Illustrator 21.1.0, SVG Export Plug-In . SVG Version: 6.00 Build 0)  -->
<svg version="1.1" id="Layer_1" xmlns="http://www.w3.org/2000/svg" xmlns:xlink="http://www.w3.org/1999/xlink" x="0px" y="0px"
	 viewBox="0 0 256 256" style="enable-background:new 0 0 256 256;" xml:space="preserve">
<style type="text/css">
	.st0{fill:#B5955F;stroke:#000000;stroke-miterlimit:10;}
	.st1{fill:#B5955F;stroke:#000000;stroke-width:0.75;stroke-miterlimit:10;}
	.st2{stroke:#000000;stroke-width:0.5;stroke-miterlimit:10;}
	.st3{fill:#B5955F;}
</style>
<path class="st0" d="M191.5,232.8l-0.8-158.2c0,0,0,0,0,0l61.8-51.3c0,0,0.1,0,0.1,0v157.1c0,0,0,0,0,0L191.5,232.8
	C191.5,232.8,191.5,232.8,191.5,232.8z"/>
<path class="st0" d="M57.3,23.2h195.1c0,0,0.1,0,0,0.1l-60.1,49.9c-1.1,0.9-2.4,1.4-3.8,1.4c-21,0-186.5,0-185.9,0
	C3.2,74.6,56.7,23.8,57.3,23.2C57.3,23.2,57.3,23.2,57.3,23.2z"/>
<path class="st0" d="M191.5,232.8l-0.8-158.2c0,0,0,0,0,0H2.6c0,0,0,0,0,0v158.2c0,0,0,0,0,0L191.5,232.8
	C191.4,232.8,191.5,232.8,191.5,232.8z"/>
<path class="st1" d="M3,74.3l27.4-25.3c0,0,0,0,0,0l190.7,0c0.1,0,0.1,0.1,0,0.1l-30.7,25.3c0,0,0,0,0,0L3,74.4
	C3,74.4,2.9,74.3,3,74.3z"/>
<path class="st2" d="M57.3,23.2"/>
<g id="Layer_2">
	<path class="st2" d="M109.5,86.8l0.1,19.8l0,15.1l25.6-25.4c0,0,4.1-2.3,7.8,1.5c3.8,3.8,10.3,10.4,10.3,10.4s3.5,2.8,0.2,6.4
		c-3.4,3.7-11.1,10.9-11.1,10.9L128,140.8h14.6h22.6c0,0,3.8,0.4,3.8,3.8c0.1,3.3,0,18.8,0,18.8s-1,2.6-3.4,2.5c-2.4-0.1-38,0-38,0
		l14.1,14.4l12.5,12.8c0,0,3,2.5-0.2,5.3c-3.2,2.8-13,12.7-13,12.7s-2.5,2.1-4.8,0c-2.3-2.1-12.8-12.9-12.8-12.9l-14-13.8l0.1,26v13
		c0,0-0.3,2.5-3.3,2.5s-19.8,0-19.8,0s-2.3,1.1-2.3-3.6c0.1-4.7,0-37.5,0-37.5L69,198.8l-11.8,11.6c0,0-2.8,2.5-5.8-0.2
		s-12.3-11.8-12.3-11.8s-2.3-3.6,0-5.8c2.3-2.2,11.6-11.4,11.6-11.4l15.7-15.2l-21-0.2H27.4c0,0-3,0.1-3-2.9s0-18.2,0-18.2
		s0.1-4.1,4.3-4.1s37.2,0.2,37.2,0.2l-14.8-15l-12-12.9c0,0-1.8-2,0.8-4.6c2.5-2.6,12.3-12.5,12.3-12.5s3.3-1.8,5.2,0.1
		c1.8,1.9,11.7,11.4,11.7,11.4l15.5,13.8l-0.1-19.8l-0.4-15c0,0,0-5.5,3.9-5.5s17.6,0,17.6,0S109.5,81.4,109.5,86.8z"/>
</g>
<circle cx="97" cy="153.7" r="47.9"/>
<circle class="st3" cx="96.8" cy="153.3" r="27.2"/>
</svg>
